<svg xmlns="http://www.w3.org/2000/svg" viewBox="0 0 1440 320" preserveAspectRatio="none"><path fill="#fff" fill-opacity="1" d="M0,32L18.5,37.3C36.9,43,74,53,111,101.3C147.7,149,185,235,222,272C258.5,309,295,299,332,261.3C369.2,224,406,160,443,133.3C480,107,517,117,554,106.7C590.8,96,628,64,665,69.3C701.5,75,738,117,775,154.7C812.3,192,849,224,886,218.7C923.1,213,960,171,997,160C1033.8,149,1071,171,1108,154.7C1144.6,139,1182,85,1218,69.3C1255.4,53,1292,75,1329,74.7C1366.2,75,1403,53,1422,42.7L1440,32L1440,320L1421.5,320C1403.1,320,1366,320,1329,320C1292.3,320,1255,320,1218,320C1181.5,320,1145,320,1108,320C1070.8,320,1034,320,997,320C960,320,923,320,886,320C849.2,320,812,320,775,320C738.5,320,702,320,665,320C627.7,320,591,320,554,320C516.9,320,480,320,443,320C406.2,320,369,320,332,320C295.4,320,258,320,222,320C184.6,320,148,320,111,320C73.8,320,37,320,18,320L0,320Z"></path></svg>